<?xml version="1.0"?><svg width="744.09448819" height="1052.3622047" xmlns="http://www.w3.org/2000/svg">
 <title>das d</title>

 <g>
  <title>Layer 1</title>
  <g id="layer1">
   <path fill="#ffffff" stroke="#000000" stroke-width="10.856777" stroke-linejoin="round" stroke-miterlimit="4" stroke-dashoffset="0" id="path3422" d="m390.422943,9.838013c-42.21228,0 -78.835052,22.757267 -99.319519,56.366875c-19.006836,-13.428772 -42.04454,-21.548565 -67.068939,-21.548565c-64.40274,0 -116.730057,52.327312 -116.730057,116.730152c0,4.730713 0.879021,9.256134 1.428436,13.839371c-55.62088,8.874481 -98.321869,56.624298 -98.321869,114.73201c0,57.575684 41.879768,105.224274 96.751709,114.731995c-1.110397,6.46286 -1.998161,13.052887 -1.998161,19.833832c0,64.402832 52.327324,116.58551 116.730156,116.58551c31.542084,0 60.045151,-12.598877 81.052933,-32.961853c21.406921,25.463867 53.055969,42.096558 88.90094,42.096558c51.144531,0 94.140533,-33.230835 109.879791,-79.057678c12.598846,4.658447 26.030548,7.706299 40.240143,7.706299c64.402832,0 116.585571,-52.324432 116.585571,-116.727234c0,-32.386566 -13.200378,-61.621094 -34.532104,-82.76767c10.768494,-17.66803 17.410583,-38.172729 17.410583,-60.360367c0,-64.402832 -52.327332,-116.588432 -116.730042,-116.588432c-6.778076,0 -13.371063,0.746033 -19.833832,1.85643c-10.401337,-53.770226 -57.653778,-94.467232 -114.44574,-94.467232z"/>
   <path fill="#ffffff" stroke="#000000" stroke-width="4.798749" stroke-linejoin="round" stroke-miterlimit="4" stroke-dashoffset="0" id="path3424" d="m552.682129,601.206299a43.559814,43.559814 0 1 1 -87.11969,0a43.559814,43.559814 0 1 1 87.11969,0z"/>
   <path fill="#ffffff" stroke="#000000" stroke-width="5.402773" stroke-linejoin="round" stroke-miterlimit="4" stroke-dashoffset="0" id="path3426" d="m597.436096,696.246216a30.234222,30.234222 0 1 1 -60.470093,0a30.234222,30.234222 0 1 1 60.470093,0z"/>
  </g>
 </g>
</svg>